#define smily_width 16
#define smily_height 16
static  char smily_bits[] PROGMEM = {
   0xe0, 0x07, 0x18, 0x18, 0x04, 0x20, 0x02, 0x40, 0x32, 0x4c, 0x49, 0x92,
   0x31, 0x8c, 0x31, 0x8c, 0x81, 0x81, 0x81, 0x81, 0x09, 0x90, 0x32, 0x4c,
   0xc2, 0x43, 0x04, 0x20, 0x18, 0x18, 0xe0, 0x07 };
